PathFileType	4	(X/Y/Z)	C:\Users\Basilio\Documents\Thesis Gigler\squatting_fais\c3dfiles\076\SLS_front_pre3\markers_experimental.trc
DataRate	CameraRate	NumFrames	NumMarkers	Units	OrigDataRate	OrigDataStartFrame	OrigNumFrames
200.000000	200.000000	4	61	mm	200.000000	0	1453
Frame#	Time	FHD			LBHD			RBHD			C7			T10			CLAV			LSHO			LUUPA			LMUPA			LDUPA			LLEP			LMEP			LRAD			LUL			LRFIN			RSHO			RUPA1			RMUPA			RDUPA			RLEP			RMEP			RRAD			RUL			RUFIN			LASI			RASI			USACR			LSACR			RSACR			LTHI1			LTHI2			LTHI4			LLFC			LMFC			LTIB1			LTIB2			LTIB3			LTIB4			LLMAL			LMMAL			LHEE			LMT1			LMT2			LMT5			RTHI			RTHI2			RTHI3			RTHI4			RLFC			RMFC			RTIB1			RTIB2			RTIB3			RTIB4			RLMAL			RMMAL			RHEE			RMT1			RMT2			RMT5			LTHI3			
		X1	Y1	Z1	X2	Y2	Z2	X3	Y3	Z3	X4	Y4	Z4	X5	Y5	Z5	X6	Y6	Z6	X7	Y7	Z7	X8	Y8	Z8	X9	Y9	Z9	X10	Y10	Z10	X11	Y11	Z11	X12	Y12	Z12	X13	Y13	Z13	X14	Y14	Z14	X15	Y15	Z15	X16	Y16	Z16	X17	Y17	Z17	X18	Y18	Z18	X19	Y19	Z19	X20	Y20	Z20	X21	Y21	Z21	X22	Y22	Z22	X23	Y23	Z23	X24	Y24	Z24	X25	Y25	Z25	X26	Y26	Z26	X27	Y27	Z27	X28	Y28	Z28	X29	Y29	Z29	X30	Y30	Z30	X31	Y31	Z31	X32	Y32	Z32	X33	Y33	Z33	X34	Y34	Z34	X35	Y35	Z35	X36	Y36	Z36	X37	Y37	Z37	X38	Y38	Z38	X39	Y39	Z39	X40	Y40	Z40	X41	Y41	Z41	X42	Y42	Z42	X43	Y43	Z43	X44	Y44	Z44	X45	Y45	Z45	X46	Y46	Z46	X47	Y47	Z47	X48	Y48	Z48	X49	Y49	Z49	X50	Y50	Z50	X51	Y51	Z51	X52	Y52	Z52	X53	Y53	Z53	X54	Y54	Z54	X55	Y55	Z55	X56	Y56	Z56	X57	Y57	Z57	X58	Y58	Z58	X59	Y59	Z59	X60	Y60	Z60	X61	Y61	Z61	

1	0	-223.9424896240235	1638.686767578125	-992.4800415039065	-338.4394226074219	1561.998413085938	-1113.644897460938	-355.8900451660157	1569.119750976563	-963.4013671875002	-394.6174621582032	1436.94677734375	-1030.29443359375	-401.2650756835939	1118.647338867188	-1037.505615234375	-257.2812805175782	1369.224609375	-1029.339477539063	-320.1659545898438	1378.619262695313	-1211.692626953125	-304.4076232910157	1172.938598632813	-1271.541137695313	-270.8957824707032	1149.409912109375	-1243.7236328125	-298.2417297363282	1104.382934570313	-1276.880004882813	-309.2659301757813	1048.634521484375	-1278.461669921875	-347.0252685546876	1035.262573242188	-1206.942749023438	-196.7917022705079	831.235290527344	-1232.469848632813	-232.4906616210938	817.4361572265627	-1285.664794921875	-163.6724548339844	749.8663940429689	-1240.910278320313	-324.6387023925782	1367.760009765625	-856.921569824219	-339.2651672363282	1161.630737304688	-794.5618896484377	-293.8512268066407	1142.805053710938	-799.8912353515627	-327.7200622558594	1092.201293945313	-796.8463134765627	-308.3669128417969	1031.638061523438	-800.7908325195315	-323.1277160644532	1022.573181152344	-881.1114501953127	-192.7010955810547	816.6043090820315	-834.7298583984377	-241.7775573730469	806.6590576171877	-790.5792236328127	-164.4150085449219	747.5362548828126	-807.3204345703127	-225.2024078369141	949.2846679687502	-1140.731323242188	-230.6679992675782	945.726501464844	-923.3375244140627	-398.679412841797	1008.791564941406	-1032.205810546875	-403.8498535156251	980.024841308594	-1060.595825195313	-403.5156250000001	977.301208496094	-1004.854309082031	-310.5337829589844	788.5852661132815	-1193.935424804688	-292.7803649902344	708.4594116210939	-1179.883911132813	-327.2928771972657	660.4826049804689	-1164.644775390625	-346.0512390136719	501.4870605468751	-1125.40478515625	-311.5511474609376	503.667449951172	-1011.156616210938	-317.1239013671876	362.4963989257813	-1044.323120117188	-341.0491943359376	304.7099914550782	-1106.706665039063	-311.9825439453126	309.9656066894532	-1069.738647460938	-325.1262817382813	236.394271850586	-1030.674560546875	-383.5535583496094	106.7871932983399	-1070.510620117188	-355.9814453125001	123.842269897461	-992.876892089844	-442.1448364257814	96.5916442871094	-1023.890747070313	-238.4692993164063	54.13588714599611	-1005.028137207031	-234.1042785644532	49.14918136596681	-1044.079956054688	-257.3872680664063	42.79695129394532	-1093.748779296875	-311.2843017578126	699.4287109375001	-835.429626464844	-269.7281188964844	648.8718872070314	-817.1740722656252	-235.4735412597657	653.3511962890626	-820.3609008789065	-287.3044433593751	567.5130004882814	-826.6304931640627	-283.1373596191407	511.7689819335939	-821.998718261719	-232.438949584961	490.5845336914064	-925.4538574218752	-260.5619812011719	373.2408752441407	-816.0645141601565	-347.6040039062501	310.5636596679688	-795.6850585937502	-302.0874633789063	298.7114562988282	-797.9805908203127	-292.4127502441407	247.2417602539063	-822.9075927734377	-377.8408813476563	120.5047378540039	-786.1064453125002	-351.5595703125001	126.757568359375	-867.8757934570315	-436.9180908203126	106.4028930664063	-824.8848266601565	-243.7388305664063	50.29363250732423	-850.5615234375002	-235.0086822509766	52.36413955688478	-805.7687988281252	-262.9936523437501	39.36933135986329	-751.4685058593751	nan	nan	nan	
2	0.005	-223.9608917236329	1638.681762695313	-992.2974853515627	-338.3783874511719	1562.047119140625	-1113.727294921875	-355.9683532714844	1569.10498046875	-963.5059204101565	-394.6540832519532	1436.950317382813	-1030.37646484375	-401.2994689941407	1118.652954101563	-1037.60107421875	-257.3142395019532	1369.19482421875	-1029.373168945313	-320.1082763671876	1378.64501953125	-1211.676025390625	-304.3205871582032	1172.978637695313	-1271.627807617188	-270.8069458007813	1149.446411132813	-1243.78369140625	-298.1658020019532	1104.448608398438	-1277.020751953125	-309.1803283691407	1048.672729492188	-1278.60498046875	-346.9739379882813	1035.321533203125	-1207.018310546875	-196.6522521972657	831.3482666015627	-1232.636962890625	-232.3139953613282	817.5405273437502	-1285.792846679688	-163.5098724365235	749.9593505859376	-1241.046752929688	-324.6808776855469	1367.724243164063	-856.9797363281252	-339.3508300781251	1161.585693359375	-794.6618652343752	-293.9117126464844	1142.758056640625	-799.9555664062502	-327.7987976074219	1092.155517578125	-796.8806762695315	-308.4417419433594	1031.610961914063	-800.857604980469	-323.1198120117188	1022.525451660156	-881.028015136719	-192.6456756591797	816.628845214844	-834.741394042969	-241.7669525146485	806.6551513671877	-790.6292114257815	-164.3986206054688	747.4271850585939	-807.497985839844	-225.1726074218751	949.2495117187502	-1140.766357421875	-230.699203491211	945.7615966796877	-923.3087158203127	-398.6705017089845	1008.759582519531	-1032.257934570313	-403.8645935058595	980.030212402344	-1060.691528320313	-403.5295715332032	977.2891845703127	-1004.93310546875	-310.6070861816407	788.6049804687502	-1193.900146484375	-292.7634887695313	708.4136962890626	-1179.805786132813	-327.2362670898438	660.4454345703126	-1164.654663085938	-346.0814514160157	501.4667968750001	-1125.4580078125	-311.6636047363282	503.6652832031251	-1011.139831542969	-317.4387207031251	362.6785278320313	-1044.454833984375	-341.0693054199219	304.7217102050782	-1106.723876953125	-312.0574951171876	309.9139099121094	-1069.73828125	-325.8739624023438	236.2376098632813	-1031.12158203125	-383.5585021972657	106.7818832397461	-1070.514038085938	-355.9847106933594	123.838737487793	-992.8972778320315	-442.1094665527345	96.55814361572268	-1023.868103027344	-238.4768524169922	54.16000747680665	-1005.029602050781	-234.104232788086	49.14915084838869	-1044.080078125	-257.4142761230469	42.79605865478516	-1093.793579101563	-311.3409729003907	699.4161987304689	-835.4585571289065	-269.7368774414063	648.8839111328126	-817.1780395507815	-235.5505828857422	653.3407592773439	-820.3840332031252	-287.3358154296876	567.5329589843751	-826.6656494140627	-283.1332092285157	511.7721252441407	-821.9773559570315	-232.3447418212891	490.5946655273439	-925.434265136719	-260.5810852050782	373.2497253417969	-816.0860595703127	-347.6366271972657	310.5518798828126	-795.6665039062502	-302.0720825195313	298.7092285156251	-797.9656372070315	-292.3760070800782	247.2760772705079	-822.8961181640627	-377.8489074707032	120.5172424316407	-786.1068115234377	-351.5226745605469	126.7702255249024	-867.8462524414065	-436.8990478515626	106.3916702270508	-824.9001464843752	-243.6525878906251	50.36471939086915	-850.533142089844	-235.035385131836	52.35450363159181	-805.7689208984377	-262.9782104492188	39.36752319335938	-751.4632568359376	nan	nan	nan	
3	0.01	-223.9966888427735	1638.664184570313	-992.193786621094	-338.2177429199219	1562.025634765625	-1113.840576171875	-356.0619201660157	1569.108032226563	-963.5723266601565	-394.6249084472657	1436.909301757813	-1030.438110351563	-401.2680969238282	1118.645874023438	-1037.695678710938	-257.2761230468751	1369.22119140625	-1029.36572265625	-320.0582885742188	1378.618286132813	-1211.764404296875	-304.2451477050782	1173.03955078125	-1271.75537109375	-270.7735595703126	1149.493896484375	-1243.88232421875	-298.0397338867188	1104.497680664063	-1277.123046875	-309.0735473632813	1048.755859375	-1278.741333007813	-346.8628234863282	1035.293090820313	-1207.181396484375	-196.5104064941407	831.4251708984377	-1232.787353515625	-232.1739501953126	817.6423950195315	-1285.920654296875	-163.3214263916016	750.0883178710939	-1241.1884765625	-324.7612304687501	1367.712768554688	-857.0124511718752	-339.4180297851563	1161.565307617188	-794.6755371093752	-293.9908447265626	1142.748046875	-799.9890747070315	-327.8543701171876	1092.152954101563	-796.9551391601565	-308.4808044433594	1031.618286132813	-800.8555908203127	-323.2392272949219	1022.515991210938	-881.167663574219	-192.6340942382813	816.6462402343752	-834.8125610351565	-241.6939697265626	806.6513671875002	-790.643493652344	-164.3671875	747.4343872070314	-807.4870605468752	-225.2003631591797	949.2413330078127	-1140.815795898438	-230.7940979003907	945.779235839844	-923.3516845703127	-398.7333984375001	1008.7470703125	-1032.33447265625	-403.8636779785157	980.0081176757815	-1060.746215820313	-403.5578002929689	977.2822875976565	-1005.009704589844	-310.5456542968751	788.5723266601565	-1193.9892578125	-292.8494873046876	708.3928833007814	-1179.84375	-327.3368835449219	660.3925781250001	-1164.749755859375	-346.1650695800782	501.4930419921876	-1125.447875976563	-311.7156372070313	503.643524169922	-1011.144287109375	-317.2418518066407	362.5101318359376	-1044.318603515625	-341.1146850585938	304.7218627929688	-1106.704467773438	-312.0566406250001	309.9521484375001	-1069.741943359375	-325.4286499023438	236.6653137207032	-1030.706298828125	-383.5437622070313	106.7932205200196	-1070.519165039063	-355.9996643066407	123.8413238525391	-992.8897094726565	-441.7615051269532	96.41306304931643	-1023.768371582031	-238.4830932617188	54.1719207763672	-1005.026733398438	-234.0991516113282	49.17025375366212	-1044.068603515625	-257.3872375488282	42.79694747924805	-1093.748779296875	-311.3959045410157	699.4074707031251	-835.5308837890627	-269.8218078613282	648.8780517578126	-817.2103271484377	-235.6027984619141	653.3926391601564	-820.4328613281252	-287.3625488281251	567.5341186523439	-826.6560058593752	-283.1683044433594	511.7842102050782	-822.0074462890627	-232.3420867919922	490.562713623047	-925.4251708984377	-260.6033020019532	373.2386779785157	-816.104431152344	-347.6634216308594	310.5946655273438	-795.709167480469	-302.1053161621094	298.7299804687501	-797.960876464844	-292.3752746582032	247.3065643310547	-822.874694824219	-377.8576965332032	120.5186767578125	-786.1086425781252	-351.5208129882813	126.7398681640625	-867.8499755859377	-436.9759521484376	106.3931503295899	-824.878356933594	-243.6422119140626	50.40528869628908	-850.5311279296877	-235.0517120361329	52.3630714416504	-805.7707519531252	-262.9958190917969	39.37237167358399	-751.4906005859376	nan	nan	nan	
4	0.015	-223.9935760498047	1638.641357421875	-992.0700683593752	-338.0929260253907	1562.0751953125	-1113.89501953125	-356.1851501464844	1569.117797851563	-963.7116699218752	-394.6394348144532	1436.9306640625	-1030.503295898438	-401.3172607421876	1118.631591796875	-1037.697143554688	-257.3135986328126	1369.200073242188	-1029.373657226563	-319.9316711425782	1378.709594726563	-1211.767822265625	-304.2397155761719	1173.0791015625	-1271.849243164063	-270.7169494628907	1149.518920898438	-1243.9833984375	-297.9896240234376	1104.5947265625	-1277.245849609375	-308.9977111816407	1048.817016601563	-1278.869384765625	-346.7960205078126	1035.304809570313	-1207.329345703125	-196.3407135009766	831.518737792969	-1232.893310546875	-232.016098022461	817.7088623046877	-1286.034301757813	-163.1236267089844	750.1911010742189	-1241.278686523438	-324.8331909179688	1367.691040039063	-857.083435058594	-339.5224914550782	1161.571899414063	-794.7545166015627	-294.0279541015626	1142.742309570313	-800.0044555664065	-327.9144897460938	1092.135375976563	-796.9747314453127	-308.5238342285157	1031.593017578125	-800.8884887695315	-323.2377624511719	1022.601135253906	-881.1893310546877	-192.6203002929688	816.6409912109377	-834.7884521484377	-241.7061309814454	806.655212402344	-790.6494140625002	-164.302474975586	747.4746704101564	-807.5212402343752	-225.2233581542969	949.2490844726565	-1140.885498046875	-230.7940979003907	945.779235839844	-923.3516845703127	-398.6925659179689	1008.744201660156	-1032.436279296875	-403.8643493652345	980.0012207031252	-1060.8154296875	-403.5900268554689	977.2788085937502	-1005.085876464844	-310.5389404296876	788.5377197265627	-1193.983764648438	-292.8609619140626	708.4014282226564	-1179.91552734375	-327.2950134277344	660.3515625000001	-1164.671752929688	-346.2151794433594	501.4837341308595	-1125.44189453125	-311.7782287597657	503.6679992675782	-1011.12890625	-317.2575073242188	362.5079956054688	-1044.319946289063	-341.1315002441407	304.7045593261719	-1106.705078125	-312.0911865234376	309.9231567382813	-1069.740112304688	-325.5390319824219	236.557846069336	-1030.953002929688	-383.5174255371094	106.7854080200196	-1070.49658203125	-356.0389404296876	123.844955444336	-992.8940429687502	-441.7700195312501	96.37813568115237	-1023.753723144531	-238.4404754638672	54.17563247680665	-1005.068115234375	-234.1299591064454	49.13725662231447	-1044.101806640625	-258.3959350585938	43.31195831298829	-1094.1953125	-311.4562072753907	699.4266357421876	-835.5289306640627	-269.8621520996094	648.8994140625001	-817.174255371094	-235.634017944336	653.3891601562501	-820.4107055664065	-287.4277038574219	567.5159301757814	-826.6981201171877	-283.1655273437501	511.7983703613282	-822.0079345703127	-232.3446960449219	490.5946350097657	-925.434265136719	-260.5777282714844	373.2887268066407	-816.0701293945315	-347.6780700683594	310.5945434570313	-795.6995849609377	-302.1076660156251	298.7334289550782	-797.9428710937502	-292.4262390136719	247.2967071533204	-822.889099121094	-377.8804321289063	120.4907913208008	-786.1365966796877	-351.5028991699219	126.7698974609375	-867.8425292968752	-436.9523010253907	106.407455444336	-824.901550292969	-243.693099975586	50.34351348876955	-850.5821533203127	-235.0451660156251	52.35115051269533	-805.774353027344	-262.9834289550782	39.37141799926759	-751.4421386718751	nan	nan	nan	
